<svg width="291" height="217" viewBox="0 0 291 217" fill="none" xmlns="http://www.w3.org/2000/svg">
<path d="M191.793 212.165L193.227 212.935L156.932 216.588L155.498 215.818L191.793 212.165Z" fill="black"/>
<path d="M186.055 209.082L186.772 209.467L150.477 213.12L149.76 212.735L186.055 209.082Z" fill="black"/>
<path d="M188.207 210.238L190.359 211.394L154.064 215.047L151.912 213.891L188.207 210.238Z" fill="black"/>
<path d="M183.876 207.911L185.31 208.682L149.015 212.335L147.581 211.564L183.876 207.911Z" fill="black"/>
<path d="M181.723 206.755L182.455 207.148L146.16 210.801L145.429 210.408L181.723 206.755Z" fill="black"/>
<path d="M178.852 205.212L181.003 206.368L144.708 210.021L142.557 208.865L178.852 205.212Z" fill="black"/>
<path d="M170.934 200.958L172.368 201.729L136.073 205.382L134.639 204.611L170.934 200.958Z" fill="black"/>
<path d="M173.791 202.493L174.522 202.886L138.227 206.539L137.496 206.146L173.791 202.493Z" fill="black"/>
<path d="M175.238 203.271L177.389 204.427L141.094 208.08L138.943 206.924L175.238 203.271Z" fill="black"/>
<path d="M163.016 196.704L164.45 197.475L128.155 201.128L126.721 200.357L163.016 196.704Z" fill="black"/>
<path d="M165.153 197.853L165.885 198.246L129.59 201.899L128.858 201.506L165.153 197.853Z" fill="black"/>
<path d="M167.32 199.017L169.472 200.173L133.177 203.826L131.025 202.67L167.32 199.017Z" fill="black"/>
<path d="M160.114 195.146L161.549 195.916L125.254 199.569L123.82 198.799L160.114 195.146Z" fill="black"/>
<path d="M155.083 192.443L155.815 192.836L119.52 196.488L118.788 196.095L155.083 192.443Z" fill="black"/>
<path d="M157.25 193.607L159.402 194.763L123.107 198.416L120.955 197.26L157.25 193.607Z" fill="black"/>
<path d="M152.197 190.892L153.631 191.662L117.336 195.315L115.902 194.545L152.197 190.892Z" fill="black"/>
<path d="M150.044 189.736L150.776 190.129L114.481 193.781L113.75 193.388L150.044 189.736Z" fill="black"/>
<path d="M147.18 188.197L149.332 189.353L113.037 193.006L110.885 191.85L147.18 188.197Z" fill="black"/>
<path d="M144.279 186.638L145.713 187.408L109.418 191.061L107.984 190.291L144.279 186.638Z" fill="black"/>
<path d="M142.126 185.482L142.844 185.867L106.549 189.52L105.832 189.135L142.126 185.482Z" fill="black"/>
<path d="M138.542 183.556L140.694 184.712L104.399 188.365L102.247 187.209L138.542 183.556Z" fill="black"/>
<path d="M133.489 180.841L135.641 181.997L99.3455 185.65L97.1939 184.494L133.489 180.841Z" fill="black"/>
<path d="M137.08 182.771L137.798 183.156L101.503 186.809L100.786 186.424L137.08 182.771Z" fill="black"/>
<path d="M131.337 179.685L132.771 180.455L96.4762 184.108L95.0418 183.338L131.337 179.685Z" fill="black"/>
<path d="M125.571 176.587L127.005 177.358L90.7104 181.011L89.276 180.24L125.571 176.587Z" fill="black"/>
<path d="M127.723 177.743L129.875 178.899L93.5796 182.552L91.428 181.396L127.723 177.743Z" fill="black"/>
<path d="M122.706 175.048L124.858 176.204L88.563 179.857L86.4114 178.701L122.706 175.048Z" fill="black"/>
<path d="M120.525 173.876L121.959 174.647L85.6643 178.3L84.23 177.529L120.525 173.876Z" fill="black"/>
<path d="M115.486 171.169L116.218 171.562L79.9228 175.215L79.1913 174.822L115.486 171.169Z" fill="black"/>
<path d="M117.653 172.333L119.805 173.489L83.5097 177.142L81.3581 175.986L117.653 172.333Z" fill="black"/>
<path d="M112.607 169.622L114.041 170.393L77.7464 174.046L76.3121 173.275L112.607 169.622Z" fill="black"/>
<path d="M106.863 166.536L107.58 166.922L71.2855 170.575L70.5683 170.189L106.863 166.536Z" fill="black"/>
<path d="M109.015 167.693L111.167 168.849L74.872 172.502L72.7204 171.346L109.015 167.693Z" fill="black"/>
<path d="M98.9453 162.282L100.38 163.053L64.0847 166.706L62.6504 165.935L98.9453 162.282Z" fill="black"/>
<path d="M105.401 165.751L106.119 166.136L69.8238 169.789L69.1066 169.404L105.401 165.751Z" fill="black"/>
<path d="M101.817 163.825L103.969 164.981L67.6739 168.634L65.5223 167.478L101.817 163.825Z" fill="black"/>
<path d="M96.7639 161.11L98.1982 161.881L61.9033 165.534L60.4689 164.763L96.7639 161.11Z" fill="black"/>
<path d="M94.6117 159.954L95.3432 160.347L59.0484 164L58.3168 163.607L94.6117 159.954Z" fill="black"/>
<path d="M91.7473 158.415L93.8989 159.571L57.6039 163.224L55.4523 162.068L91.7473 158.415Z" fill="black"/>
<path d="M83.8293 154.161L85.2637 154.932L48.9687 158.585L47.5344 157.814L83.8293 154.161Z" fill="black"/>
<path d="M86.6791 155.692L87.4106 156.086L51.1157 159.738L50.3842 159.345L86.6791 155.692Z" fill="black"/>
<path d="M88.1336 156.474L90.2852 157.63L53.9901 161.283L51.8385 160.127L88.1336 156.474Z" fill="black"/>
<path d="M80.928 152.603L82.3624 153.373L46.0675 157.026L44.6331 156.256L80.928 152.603Z" fill="black"/>
<path d="M78.7759 151.446L79.4931 151.832L43.1982 155.485L42.481 155.099L78.7759 151.446Z" fill="black"/>
<path d="M75.1917 149.521L77.3433 150.677L41.0482 154.33L38.8966 153.174L75.1917 149.521Z" fill="black"/>
<path d="M70.1383 146.806L71.5726 147.576L35.2777 151.229L33.8433 150.459L70.1383 146.806Z" fill="black"/>
<path d="M72.2904 147.962L74.442 149.118L38.147 152.771L35.9954 151.615L72.2904 147.962Z" fill="black"/>
<path d="M67.2738 145.267L69.4254 146.423L33.1303 150.076L30.9787 148.92L67.2738 145.267Z" fill="black"/>
<path d="M60.0683 141.396L61.5026 142.166L25.2077 145.819L23.7733 145.049L60.0683 141.396Z" fill="black"/>
<path d="M62.9254 142.931L63.6569 143.324L27.362 146.977L26.6305 146.584L62.9254 142.931Z" fill="black"/>
<path d="M64.3725 143.708L66.5241 144.864L30.2291 148.517L28.0775 147.361L64.3725 143.708Z" fill="black"/>
<path d="M57.1743 139.841L58.6087 140.612L22.3137 144.265L20.8794 143.494L57.1743 139.841Z" fill="black"/>
<path d="M55.0222 138.685L55.7537 139.078L19.4588 142.731L18.7273 142.338L55.0222 138.685Z" fill="black"/>
<path d="M52.1504 137.142L54.302 138.298L18.007 141.951L15.8554 140.795L52.1504 137.142Z" fill="black"/>
<path d="M49.2564 135.587L50.6908 136.358L14.3958 140.011L12.9615 139.24L49.2564 135.587Z" fill="black"/>
<path d="M47.1043 134.431L47.8215 134.816L11.5266 138.469L10.8094 138.084L47.1043 134.431Z" fill="black"/>
<path d="M43.5127 132.501L45.6643 133.657L9.36927 137.31L7.21766 136.154L43.5127 132.501Z" fill="black"/>
<path d="M36.3145 128.634L37.7489 129.405L1.45393 133.058L0.0195661 132.287L36.3145 128.634Z" fill="black"/>
<path d="M38.4519 129.782L39.1834 130.175L2.88852 133.828L2.15699 133.435L38.4519 129.782Z" fill="black"/>
<path d="M40.6188 130.946L42.7704 132.102L6.47534 135.755L4.32373 134.599L40.6188 130.946Z" fill="black"/>
<path d="M204.762 206.752L204.856 206.872C206.86 207.062 207.225 207.215 207.807 207.528L211.563 209.546L205.034 208.519C203.304 208.252 199.974 207.745 197.632 207.98C195.158 208.229 195.07 209.141 196.5 209.909C197.883 210.652 200.421 211.339 204.228 211.256L204.009 211.068C202.47 211.002 200.319 210.918 198.889 210.15C197.035 209.153 198.675 208.738 199.801 208.624C201.458 208.458 204.122 208.621 207.544 209.148L214.517 210.231L214.782 210.204L208.653 206.911L204.762 206.752" fill="black"/>
<path d="M197.698 205.677C196.57 205.099 196.287 204.876 196.141 204.53C195.865 203.916 197.311 203.651 197.863 203.595C199.52 203.428 201.91 203.599 203.371 204.384C204.298 204.882 203.658 205.328 204.381 205.716C204.633 205.851 205.149 206.03 205.767 205.967C206.916 205.852 205.659 205.106 205.282 204.903C202.815 203.578 198.985 202.76 195.848 203.076C192.932 203.37 193.495 204.165 193.757 204.56C191.77 204.098 190.396 203.966 189.203 204.086C188.297 204.177 186.645 204.614 188.672 205.703C189.725 206.269 191.808 206.951 195.331 206.998L195.183 206.862C194.329 206.798 191.946 206.617 190.516 205.848C189.353 205.223 189.958 204.802 191.085 204.688C193.117 204.484 195.356 205.01 197.427 205.714L197.698 205.677" fill="black"/>
<path d="M189.316 200.917C189.321 199.763 189.323 199.342 190.958 199.178C192.505 199.022 194.171 199.325 195.161 199.857C196.434 200.541 195.721 201.074 194.02 201.245C192.01 201.448 190.394 201.129 189.316 200.917ZM195.435 201.865C197.158 201.691 197.933 200.952 195.984 199.905C193.375 198.503 190.382 198.474 189.234 198.589C187.754 198.738 186.802 199.044 186.787 200.389C185.298 199.998 183.113 199.416 181.081 199.62C179.402 199.789 178.918 200.459 180.694 201.414C182.045 202.14 184.825 202.872 187.057 202.648C188.846 202.468 188.969 202.054 189.283 201.181C192.184 201.781 193.513 202.058 195.435 201.865ZM185.319 202.081C184.259 202.188 182.585 202.035 181.407 201.402C180.196 200.752 180.839 200.336 182.054 200.214C183.998 200.018 185.696 200.409 186.845 200.674C186.903 201.029 187.042 201.908 185.319 202.081" fill="black"/>
<path d="M191.238 197.247C186.893 195.138 180.401 194.327 175.717 194.799C172.028 195.17 171.041 196.232 172.973 197.27C175.016 198.368 178.659 198.803 181.598 198.508C183.409 198.325 185.249 197.679 183.143 196.548C182.357 196.125 181.127 195.718 179.618 195.429L179.631 195.407C180.277 195.402 186.156 195.362 190.843 197.316L191.238 197.247L191.238 197.247ZM178.148 195.527C178.545 195.487 178.857 195.485 179.283 195.573C179.988 195.712 181.046 196.027 181.565 196.305C183.23 197.2 180.991 197.646 179.312 197.815C177.501 197.998 175.085 198.01 173.765 197.301C171.675 196.178 175.983 195.745 177.286 195.613L178.148 195.527" fill="black"/>
<path d="M168.102 193.339L165.022 191.684C164.849 191.591 164.708 191.515 164.462 191.51L161.898 191.387L161.885 191.479C162.389 191.538 162.774 191.59 163.182 191.809L166.467 193.574L173.415 193.967C173.617 193.977 173.703 193.938 173.608 193.888C172 192.967 170.256 191.368 173.791 191.012C176.486 190.741 178.886 191.241 179.908 191.79C180.756 192.246 179.811 192.612 180.817 193.152C181.445 193.49 182.086 193.425 182.307 193.403C183.102 193.323 182.894 192.873 181.652 192.206C179.169 190.872 175.099 190.179 172.161 190.474C170.195 190.672 169.727 190.83 169.254 191.308C168.59 191.967 169.692 192.798 170.64 193.505L168.102 193.339" fill="black"/>
<path d="M166.269 188.791C165.141 188.213 164.858 187.991 164.712 187.645C164.435 187.031 165.882 186.765 166.434 186.71C168.091 186.543 170.48 186.713 171.942 187.499C172.869 187.997 172.229 188.442 172.952 188.83C173.203 188.966 173.719 189.144 174.338 189.082C175.487 188.966 174.23 188.221 173.853 188.018C171.386 186.692 167.556 185.875 164.419 186.191C161.503 186.484 162.065 187.28 162.328 187.674C160.341 187.213 158.966 187.08 157.773 187.2C156.868 187.291 155.215 187.728 157.243 188.818C158.295 189.383 160.379 190.066 163.901 190.112L163.754 189.977C162.9 189.912 160.517 189.731 159.087 188.963C157.924 188.338 158.529 187.916 159.655 187.803C161.688 187.598 163.927 188.125 165.998 188.829L166.269 188.791" fill="black"/>
<path d="M155.582 181.654L157.185 182.515L147.355 183.504L148.046 183.876L162.811 185.538L164.225 185.395L159.809 183.023L163.499 182.651L162.289 182.001L158.599 182.373L156.996 181.511L155.582 181.654L155.582 181.654ZM158.411 183.173L162.183 185.2L150.931 183.946L150.9 183.929L158.411 183.173Z" fill="black"/>
<path d="M141.951 180.238C139.939 179.157 145.453 178.582 146.955 178.431C148.7 178.255 154.034 177.738 156.045 178.819C158.057 179.9 152.831 180.446 151.041 180.626C149.539 180.777 143.963 181.318 141.951 180.238ZM141.377 180.295C144.268 181.849 149.943 181.699 152.55 181.437C155.223 181.168 159.511 180.315 156.62 178.761C153.728 177.208 148.12 177.351 145.447 177.62C142.84 177.883 138.485 178.742 141.377 180.295Z" fill="black"/>
<path d="M130.712 174.364L136.527 177.488L137.75 177.526L140.702 177.66L140.611 177.498C138.944 177.335 138.02 177.248 136.999 176.699L133.589 174.867L149.867 175.213L148.845 174.665L131.066 174.329L130.712 174.364" fill="black"/>
<path d="M128.806 172.227L125.726 170.573C125.553 170.48 125.412 170.404 125.166 170.398L122.603 170.275L122.589 170.367C123.094 170.426 123.478 170.478 123.887 170.698L127.171 172.462L134.12 172.856C134.322 172.865 134.407 172.827 134.313 172.776C132.704 171.855 130.961 170.256 134.495 169.9C137.19 169.629 139.59 170.129 140.612 170.678C141.461 171.134 140.515 171.5 141.521 172.04C142.15 172.378 142.79 172.314 143.011 172.291C143.806 172.211 143.598 171.761 142.356 171.094C139.873 169.76 135.803 169.067 132.865 169.363C130.899 169.561 130.431 169.718 129.958 170.197C129.295 170.855 130.396 171.686 131.344 172.393L128.806 172.227" fill="black"/>
<path d="M126.177 164.532L126.271 164.653C128.275 164.842 128.64 164.996 129.222 165.308L132.978 167.326L126.449 166.299C124.72 166.032 121.389 165.525 119.047 165.761C116.573 166.01 116.485 166.921 117.915 167.689C119.298 168.432 121.836 169.119 125.643 169.037L125.424 168.848C123.885 168.782 121.735 168.698 120.305 167.93C118.45 166.934 120.09 166.518 121.216 166.405C122.873 166.238 125.537 166.401 128.959 166.928L135.932 168.011L136.197 167.985L130.068 164.692L126.177 164.532" fill="black"/>
<path d="M126.954 163.02L122.617 160.689L122.285 160.723C123.464 161.356 123.535 161.549 122.475 161.656L109.22 162.99L109.301 163.062L114.14 164.38L114.449 164.348C113.083 163.924 113.083 163.924 112.895 163.823C112.361 163.536 112.935 163.478 113.399 163.432L123.406 162.424C125.041 162.26 125.667 162.568 126.622 163.053L126.954 163.02" fill="black"/>
<path d="M111.262 159.239C110.134 158.661 109.851 158.439 109.705 158.092C109.429 157.479 110.875 157.213 111.427 157.157C113.084 156.99 115.474 157.161 116.935 157.946C117.862 158.444 117.222 158.89 117.945 159.278C118.197 159.413 118.713 159.592 119.331 159.53C120.48 159.414 119.223 158.668 118.846 158.466C116.379 157.14 112.549 156.322 109.412 156.638C106.496 156.932 107.059 157.727 107.321 158.122C105.334 157.66 103.96 157.528 102.767 157.648C101.861 157.739 100.209 158.176 102.236 159.265C103.289 159.831 105.372 160.513 108.895 160.56L108.747 160.424C107.893 160.36 105.51 160.179 104.08 159.41C102.917 158.786 103.522 158.364 104.649 158.25C106.681 158.046 108.92 158.572 110.991 159.276L111.262 159.239" fill="black"/>
<path d="M102.873 154.475C102.877 153.322 102.88 152.9 104.515 152.736C106.061 152.58 107.728 152.884 108.718 153.415C109.991 154.099 109.278 154.632 107.577 154.804C105.566 155.006 103.95 154.687 102.873 154.475ZM108.992 155.423C110.715 155.25 111.489 154.51 109.541 153.463C106.932 152.061 103.939 152.032 102.79 152.147C101.31 152.296 100.359 152.603 100.344 153.948C98.8547 153.556 96.6697 152.974 94.6373 153.179C92.9583 153.348 92.4746 154.018 94.2505 154.972C95.602 155.698 98.3822 156.431 100.613 156.206C102.403 156.026 102.525 155.613 102.84 154.739C105.741 155.339 107.07 155.616 108.992 155.423ZM98.876 155.639C97.8156 155.746 96.1418 155.594 94.9632 154.96C93.7532 154.31 94.3961 153.895 95.6111 153.772C97.5551 153.577 99.2526 153.967 100.402 154.232C100.46 154.588 100.599 155.466 98.8759 155.639" fill="black"/>
<path d="M92.7166 147.879L94.3195 148.74L84.4888 149.73L85.1802 150.101L99.9455 151.763L101.359 151.62L96.9434 149.248L100.633 148.877L99.4226 148.226L95.7333 148.598L94.1304 147.737L92.7166 147.879ZM95.5454 149.399L99.317 151.425L88.0656 150.172L88.0342 150.155L95.5454 149.399Z" fill="black"/>
<path d="M75.7057 144.812L81.5203 147.936L82.7438 147.973L85.695 148.107L85.6046 147.946C83.9372 147.783 83.0137 147.695 81.9922 147.147L78.582 145.314L94.8602 145.661L93.8387 145.112L76.0593 144.776L75.7058 144.812" fill="black"/>
<path d="M79.303 141.812C79.3073 140.659 79.31 140.237 80.9448 140.073C82.4911 139.917 84.1576 140.221 85.1476 140.752C86.4205 141.436 85.7075 141.969 84.0065 142.14C81.9962 142.343 80.3802 142.024 79.303 141.812ZM85.4218 142.76C87.1449 142.586 87.9192 141.847 85.9706 140.8C83.3619 139.398 80.369 139.369 79.2203 139.484C77.7402 139.633 76.7888 139.94 76.7739 141.284C75.2846 140.893 73.0996 140.311 71.0672 140.515C69.3883 140.684 68.9045 141.355 70.6804 142.309C72.0319 143.035 74.8121 143.768 77.0433 143.543C78.8327 143.363 78.9552 142.95 79.2698 142.076C82.1707 142.676 83.4999 142.953 85.4218 142.76ZM75.3059 142.976C74.2455 143.083 72.5718 142.93 71.3932 142.297C70.1831 141.647 70.826 141.231 72.041 141.109C73.9851 140.914 75.6825 141.304 76.8319 141.569C76.8895 141.924 77.029 142.803 75.3059 142.976" fill="black"/>
<path d="M71.9667 138.127C70.8382 137.549 70.5557 137.327 70.4097 136.981C70.133 136.367 71.5791 136.101 72.1315 136.045C73.7883 135.879 76.1779 136.049 77.6394 136.834C78.5665 137.333 77.9266 137.778 78.6494 138.166C78.9009 138.301 79.4169 138.48 80.0355 138.418C81.1843 138.302 79.9275 137.557 79.5504 137.354C77.0831 136.028 73.2533 135.211 70.1164 135.526C67.2003 135.82 67.7629 136.616 68.0253 137.01C66.0382 136.549 64.6639 136.416 63.471 136.536C62.5652 136.627 60.9129 137.064 62.9401 138.154C63.993 138.719 66.0765 139.402 69.5991 139.448L69.4517 139.313C68.5974 139.248 66.2142 139.067 64.7842 138.299C63.6213 137.674 64.2265 137.252 65.3531 137.139C67.3855 136.934 69.6244 137.461 71.6953 138.165L71.9667 138.127" fill="black"/>
<path d="M61.2874 130.993L62.8903 131.855L53.0596 132.844L53.7511 133.216L68.5164 134.877L69.9302 134.735L65.5142 132.363L69.2035 131.991L67.9935 131.341L64.3041 131.712L62.7012 130.851L61.2874 130.993ZM64.1161 132.513L67.8878 134.54L56.6364 133.286L56.6049 133.269L64.1161 132.513Z" fill="black"/>
<path d="M65.5061 129.697C61.161 127.588 54.6692 126.778 49.9858 127.249C46.2965 127.621 45.3089 128.682 47.2418 129.721C49.2848 130.819 52.9279 131.254 55.8661 130.958C57.6776 130.776 59.5173 130.13 57.4114 128.998C56.6257 128.576 55.3952 128.169 53.8863 127.879L53.899 127.858C54.5456 127.853 60.4248 127.813 65.1114 129.767L65.5061 129.697L65.5061 129.697ZM52.4159 127.977C52.8136 127.937 53.1258 127.936 53.551 128.023C54.2566 128.163 55.3143 128.477 55.8329 128.756C57.4987 129.651 55.2598 130.097 53.5808 130.266C51.7693 130.448 49.3533 130.461 48.0333 129.752C45.9432 128.629 50.251 128.195 51.5544 128.064L52.416 127.977" fill="black"/>
<path d="M71.8576 103.769C71.8576 103.769 72.2864 97.7625 75.288 92.6137C78.2896 87.4652 89.4382 68.587 94.5837 58.2903C99.7293 47.9935 127.173 18.8184 143.467 19.2474C159.761 19.6764 169.623 24.8249 179.915 21.8216C190.206 18.8183 226.226 -3.06302 235.23 0.369458C244.235 3.80181 292.261 28.6866 290.974 34.6929C289.688 40.6995 286.258 51.8547 274.251 56.1451C262.245 60.4356 256.242 66.8709 250.667 69.0164C245.093 71.1616 233.087 70.7326 233.087 74.594C233.087 78.4554 223.224 103.34 214.648 112.779C206.072 122.218 195.352 147.102 191.065 152.68C186.777 158.257 181.203 170.699 176.915 168.984C172.627 167.267 167.91 164.264 164.908 159.545C161.906 154.825 88.1533 111.492 84.2968 109.346C80.4376 107.201 74.4346 105.485 71.8615 103.769L71.8576 103.769Z" fill="url(#paint0_radial_1014_3353)"/>
<path d="M87.6204 71.1953C82.6557 80.0468 77.2535 89.2594 75.2955 92.6184C72.2939 97.767 71.8672 103.772 71.8672 103.772C74.44 105.488 80.4384 107.203 84.2977 109.349C88.1569 111.494 161.914 154.821 164.916 159.54C167.917 164.26 172.617 167.252 176.904 168.968C181.192 170.684 186.771 158.257 191.059 152.679C192.765 150.461 195.514 145.162 198.715 139.021L87.6347 71.1934L87.6204 71.1953Z" fill="url(#paint1_linear_1014_3353)"/>
<path d="M128.36 24.5197C113.888 33.3228 98.3267 50.8024 94.5811 58.2963C92.794 61.8725 90.2814 66.5061 87.6406 71.2181L90.2049 72.7805C95.3056 64.0003 101.27 54.6221 107.873 46.285C114.56 37.8408 121.85 30.4654 128.359 24.525L128.36 24.5197Z" fill="url(#paint2_linear_1014_3353)"/>
<path d="M87.6204 71.1953C82.6557 80.0468 77.2534 89.2594 75.2955 92.6184C72.4193 97.552 71.926 103.135 71.8882 103.603C71.978 103.716 72.0703 103.828 72.1617 103.94C72.3835 104.076 72.6172 104.225 72.8768 104.361C75.4292 100.739 81.5914 87.6095 90.2078 72.7731L87.6207 71.1947L87.6204 71.1953Z" fill="url(#paint3_linear_1014_3353)"/>
<path d="M289.428 31.7389C280.11 32.9679 253.245 33.3635 245.827 34.4958C236.882 35.8609 224.152 42.2355 223.091 50.4264C222.029 58.6174 230.053 68.1202 230.053 68.1202C230.053 68.1202 230.928 59.1178 233.25 57.5608C238.545 54.0097 243.631 56.1635 250.265 54.5093C256.562 52.9394 263.993 46.9144 268.206 45.2705C278.501 40.0289 286.091 34.7993 289.912 32.2861C289.761 32.1054 289.607 31.9301 289.428 31.7389L289.428 31.7389Z" fill="url(#paint4_radial_1014_3353)"/>
<path d="M172.654 166.802C172.208 166.535 171.766 166.259 171.329 165.961C171.321 165.969 171.315 165.994 171.308 166.003C171.751 166.305 172.207 166.533 172.654 166.802H172.654Z" fill="url(#paint5_radial_1014_3353)"/>
<path d="M174.269 167.732C174.161 167.676 174.062 167.621 173.953 167.563C174.055 167.617 174.146 167.7 174.248 167.753C174.248 167.75 174.267 167.734 174.269 167.732L174.269 167.732Z" fill="url(#paint6_radial_1014_3353)"/>
<path d="M194.124 136.229L188.866 133.009C186.968 137.005 185.565 140.25 185.5 141.09C185.3 143.7 175.889 160.949 171.346 165.965C171.783 166.263 172.224 166.539 172.671 166.807C173.096 167.064 173.522 167.335 173.954 167.565C174.062 167.622 174.161 167.677 174.269 167.733C176.154 164.766 185.629 149.826 194.124 136.229L194.124 136.229Z" fill="#222A32"/>
<path d="M229.997 67.9964C229.897 68.0096 230.413 69.445 230.534 70.2896C231.177 74.7945 217.655 92.3882 208.007 102.257C201.265 109.153 193.271 123.728 188.867 133.003L194.125 136.223C200.881 125.409 207.081 115.343 207.796 113.642C209.511 109.566 228.595 83.823 230.953 79.3178C232.869 75.6575 230.433 67.9394 229.996 67.996L229.997 67.9964Z" fill="url(#paint7_radial_1014_3353)"/>
<path d="M222.796 2.35701C209.586 7.10592 190.856 17.6608 182.076 21.0656C182.241 21.2456 182.422 21.437 182.623 21.6128C182.623 21.6128 194.747 21.6081 206.117 14.4785C214.589 9.16589 218.191 6.71177 222.795 2.35668L222.796 2.35701Z" fill="url(#paint8_radial_1014_3353)"/>
<path d="M71.972 102.725C71.8814 103.39 71.8668 103.778 71.8668 103.778C74.4396 105.494 80.4382 107.209 84.2974 109.354C87.173 110.953 128.836 135.399 151.139 149.719C129.13 135.359 85.4665 107.372 82.569 105.925C78.7467 104.012 75.7746 103.363 71.9685 102.726L71.972 102.725ZM157.658 153.99C160.748 156.072 163.02 157.719 164.157 158.746C163.983 158.511 163.712 158.179 163.61 158.052C163.474 157.882 161.002 156.199 157.658 153.99V153.99ZM165.776 160.766C168.77 164.781 173.001 167.412 176.903 168.974C177.497 169.212 178.116 169.161 178.753 168.911C177.529 167.868 175.876 166.84 173.706 166.196C170.164 165.146 167.503 162.729 165.776 160.767V160.766Z" fill="url(#paint9_linear_1014_3353)"/>
<g filter="url(#filter0_f_1014_3353)">
<path d="M30.9038 130.834L18.231 131.602L166.598 212.69L175.841 211.517L30.9038 130.834Z" fill="#FF0000"/>
</g>
<g filter="url(#filter1_f_1014_3353)">
<path d="M78.5545 101.163L24.1397 131.226L170.36 211.028L174.878 157.735L78.5545 101.163Z" fill="url(#paint10_linear_1014_3353)"/>
</g>
<defs>
<filter id="filter0_f_1014_3353" x="12.8953" y="125.499" width="168.281" height="92.5271" filterUnits="userSpaceOnUse" color-interpolation-filters="sRGB">
<feFlood flood-opacity="0" result="BackgroundImageFix"/>
<feBlend mode="normal" in="SourceGraphic" in2="BackgroundImageFix" result="shape"/>
<feGaussianBlur stdDeviation="2.66784" result="effect1_foregroundBlur_1014_3353"/>
</filter>
<filter id="filter1_f_1014_3353" x="19.751" y="96.7743" width="159.515" height="118.642" filterUnits="userSpaceOnUse" color-interpolation-filters="sRGB">
<feFlood flood-opacity="0" result="BackgroundImageFix"/>
<feBlend mode="normal" in="SourceGraphic" in2="BackgroundImageFix" result="shape"/>
<feGaussianBlur stdDeviation="2.19432" result="effect1_foregroundBlur_1014_3353"/>
</filter>
<radialGradient id="paint0_radial_1014_3353" cx="0" cy="0" r="1" gradientUnits="userSpaceOnUse" gradientTransform="translate(125.681 37.8079) scale(89.7749 69.3535)">
<stop stop-color="#55504A"/>
<stop offset="1" stop-color="#2F3B39"/>
</radialGradient>
<linearGradient id="paint1_linear_1014_3353" x1="190.388" y1="146.673" x2="91.3071" y2="88.8005" gradientUnits="userSpaceOnUse">
<stop stop-color="#26383F"/>
<stop offset="1" stop-color="#485D60"/>
</linearGradient>
<linearGradient id="paint2_linear_1014_3353" x1="88.7646" y1="74.5893" x2="122.233" y2="30.417" gradientUnits="userSpaceOnUse">
<stop stop-color="#787973"/>
<stop offset="1" stop-color="#787973" stop-opacity="0"/>
</linearGradient>
<linearGradient id="paint3_linear_1014_3353" x1="72.8133" y1="103.224" x2="88.4423" y2="71.6737" gradientUnits="userSpaceOnUse">
<stop stop-color="#919A9A"/>
<stop offset="1" stop-color="#A3A49F"/>
</linearGradient>
<radialGradient id="paint4_radial_1014_3353" cx="0" cy="0" r="1" gradientUnits="userSpaceOnUse" gradientTransform="translate(249.742 44.2044) rotate(-15.0079) scale(37.3228 25.9769)">
<stop stop-color="#60574E"/>
<stop offset="1" stop-color="#40423F"/>
</radialGradient>
<radialGradient id="paint5_radial_1014_3353" cx="0" cy="0" r="1" gradientUnits="userSpaceOnUse" gradientTransform="translate(125.681 37.8069) scale(89.7748 69.3541)">
<stop stop-color="#55504A"/>
<stop offset="1" stop-color="#2F3B39"/>
</radialGradient>
<radialGradient id="paint6_radial_1014_3353" cx="0" cy="0" r="1" gradientUnits="userSpaceOnUse" gradientTransform="translate(125.674 37.8048) scale(89.7865 69.3552)">
<stop stop-color="#55504A"/>
<stop offset="1" stop-color="#2F3B39"/>
</radialGradient>
<radialGradient id="paint7_radial_1014_3353" cx="0" cy="0" r="1" gradientUnits="userSpaceOnUse" gradientTransform="translate(222.92 88.0734) scale(53.6353 45.2151)">
<stop stop-color="#AEAAA7"/>
<stop offset="0.23449" stop-color="#112325"/>
<stop offset="1" stop-color="#01040D"/>
</radialGradient>
<radialGradient id="paint8_radial_1014_3353" cx="0" cy="0" r="1" gradientUnits="userSpaceOnUse" gradientTransform="translate(202.866 12.4958) scale(89.7748 69.3535)">
<stop stop-color="#60574E"/>
<stop offset="1" stop-color="#40423F"/>
</radialGradient>
<linearGradient id="paint9_linear_1014_3353" x1="61.9705" y1="92.9067" x2="197.116" y2="160.707" gradientUnits="userSpaceOnUse">
<stop stop-color="#2B3439"/>
<stop offset="1" stop-color="#2B3439" stop-opacity="0"/>
</linearGradient>
<linearGradient id="paint10_linear_1014_3353" x1="103.895" y1="197.726" x2="136.513" y2="132.526" gradientUnits="userSpaceOnUse">
<stop stop-color="#FF0000"/>
<stop offset="1" stop-color="#FF0000" stop-opacity="0"/>
</linearGradient>
</defs>
</svg>
